Please Show Your Support!


On Our New Banner Support Page:

 
http://www.expertlinks.biz/b25ca




For More xCrazy0328x Torrents Go To:


 
http://www.expertlinks.biz/4ded 




**All New Episodes Will Be Uploaded There First




Proudly Guaranteeing .Avi file torrents!





For %100 Legit Torrents Always Make Sure xCrazy0328x Is Your Source!



-------------------------------------------------------------------------------------------

Format                                   : AVI
Format/Info                              : Audio Video Interleave
Format profile                           : OpenDML
Format settings                          : rec
File size                                : 1.32 GiB
Duration                                 : 1h 45mn
Overall bit rate                         : 1 791 Kbps
Writing application                      : VirtualDubMod 1.5.10.2 (build 2542/release)
Writing library                          : VirtualDubMod build 2542/release
Original source form                     : MAX TORRENTZ
Copyright                                : SIGISMUNT

Video
ID                                       : 0
Format                                   : MPEG-4 Visual
Format profile                           : Advanced Simple@L5
Format settings, BVOP                    : 2
Format settings, QPel                    : No
Format settings, GMC                     : No warppoints
Format settings, Matrix                  : Default (MPEG)
Codec ID                                 : XVID
Codec ID/Hint                            : XviD
Duration                                 : 1h 45mn
Bit rate                                 : 1 402 Kbps
Width                                    : 720 pixels
Height                                   : 384 pixels
Display aspect ratio                     : 1.85:1
Frame rate                               : 23.976 fps
Color space                              : YUV
Chroma subsampling                       : 4:2:0
Bit depth                                : 8 bits
Scan type                                : Progressive
Compression mode                         : Lossy
Bits/(Pixel*Frame)                       : 0.211
Stream size                              : 1.04 GiB (78%)

Audio
ID                                       : 1
Format                                   : AC-3
Format/Info                              : Audio Coding 3
Mode extension                           : CM (complete main)
Format settings, Endianness              : Big
Codec ID                                 : 2000
Duration                                 : 1h 45mn
Bit rate mode                            : Constant
Bit rate                                 : 384 Kbps
Channel(s)                               : 6 channels
Channel positions                        : Front: L C R, Side: L R, LFE
Sampling rate                            : 48.0 KHz
Bit depth                                : 16 bits
Compression mode                         : Lossy
Stream size                              : 291 MiB (21%)
Alignment                                : Aligned on interleaves
Interleave, duration                     : 64 ms (1.53 video frames)
Interleave, preload duration             : 192 ms


IMDB: 
 
http://www.imdb.com/title/tt1409024/